<svg xmlns="http://www.w3.org/2000/svg" xmlns:xlink="http://www.w3.org/1999/xlink" width="400" zoomAndPan="magnify" viewBox="0 0 300 74.999997" height="100" preserveAspectRatio="xMidYMid meet" version="1.0"><defs><g/><clipPath id="99013ce7aa"><path d="M 103.203125 7.5 L 122.703125 7.5 L 122.703125 26 L 103.203125 26 Z M 103.203125 7.5 " clip-rule="nonzero"/></clipPath></defs><g fill="#ffffff" fill-opacity="1"><g transform="translate(4.125006, 57.286884)"><g><path d="M 4.234375 -43.046875 L 27 -43.046875 C 28.957031 -43.046875 30.738281 -42.566406 32.34375 -41.609375 C 33.945312 -40.648438 35.226562 -39.375 36.1875 -37.78125 C 37.144531 -36.1875 37.625 -34.410156 37.625 -32.453125 L 37.625 -28.15625 C 37.625 -26.195312 37.15625 -24.429688 36.21875 -22.859375 C 35.28125 -21.285156 34.003906 -20.03125 32.390625 -19.09375 C 30.773438 -18.164062 28.96875 -17.703125 26.96875 -17.703125 L 39.8125 0 L 32.03125 0 L 19.1875 -17.703125 L 14.265625 -17.703125 L 14.265625 -24.0625 L 27 -24.0625 C 28.195312 -24.0625 29.207031 -24.46875 30.03125 -25.28125 C 30.851562 -26.101562 31.265625 -27.09375 31.265625 -28.25 L 31.265625 -32.453125 C 31.265625 -33.617188 30.851562 -34.613281 30.03125 -35.4375 C 29.207031 -36.269531 28.195312 -36.6875 27 -36.6875 L 10.625 -36.6875 L 10.625 0 L 4.234375 0 Z M 4.234375 -43.046875 "/></g></g></g><g fill="#ffffff" fill-opacity="1"><g transform="translate(45.745733, 57.286884)"><g><path d="M 3.328125 -20.109375 C 3.328125 -22.179688 3.835938 -24.066406 4.859375 -25.765625 C 5.878906 -27.460938 7.242188 -28.816406 8.953125 -29.828125 C 10.671875 -30.847656 12.570312 -31.359375 14.65625 -31.359375 L 32.15625 -31.359375 L 32.15625 0 L 25.765625 0 L 25.765625 -24.96875 L 14.65625 -24.96875 C 13.300781 -24.96875 12.140625 -24.488281 11.171875 -23.53125 C 10.203125 -22.570312 9.71875 -21.410156 9.71875 -20.046875 L 9.71875 -11.390625 C 9.71875 -10.015625 10.203125 -8.835938 11.171875 -7.859375 C 12.140625 -6.878906 13.300781 -6.390625 14.65625 -6.390625 L 22.125 -6.390625 L 22.125 0 L 14.65625 0 C 12.570312 0 10.671875 -0.507812 8.953125 -1.53125 C 7.242188 -2.550781 5.878906 -3.914062 4.859375 -5.625 C 3.835938 -7.34375 3.328125 -9.242188 3.328125 -11.328125 Z M 3.328125 -20.109375 "/></g></g></g><g fill="#ffffff" fill-opacity="1"><g transform="translate(81.524425, 57.286884)"><g><path d="M 2.125 -31.359375 L 6.203125 -31.359375 L 6.203125 -43.046875 L 12.59375 -43.046875 L 12.59375 -31.359375 L 22.25 -31.359375 L 22.25 -24.96875 L 12.59375 -24.96875 L 12.59375 -8.90625 C 12.59375 -8.21875 12.859375 -7.625 13.390625 -7.125 C 13.929688 -6.632812 14.570312 -6.390625 15.3125 -6.390625 L 22.25 -6.390625 L 22.25 0 L 15.234375 0 C 13.578125 0 12.066406 -0.394531 10.703125 -1.1875 C 9.335938 -1.988281 8.242188 -3.0625 7.421875 -4.40625 C 6.609375 -5.75 6.203125 -7.238281 6.203125 -8.875 L 6.203125 -24.96875 L 2.125 -24.96875 Z M 2.125 -31.359375 "/></g></g></g><g fill="#ffffff" fill-opacity="1"><g transform="translate(105.891469, 57.286884)"><g><path d="M 2.90625 -39.90625 C 2.90625 -40.988281 3.285156 -41.914062 4.046875 -42.6875 C 4.816406 -43.457031 5.75 -43.84375 6.84375 -43.84375 C 7.9375 -43.84375 8.863281 -43.457031 9.625 -42.6875 C 10.394531 -41.914062 10.78125 -40.988281 10.78125 -39.90625 C 10.78125 -38.8125 10.394531 -37.878906 9.625 -37.109375 C 8.863281 -36.347656 7.9375 -35.96875 6.84375 -35.96875 C 5.75 -35.96875 4.816406 -36.347656 4.046875 -37.109375 C 3.285156 -37.878906 2.90625 -38.8125 2.90625 -39.90625 Z M 3.640625 -31.359375 L 10.046875 -31.359375 L 10.046875 0 L 3.640625 0 Z M 3.640625 -31.359375 "/></g></g></g><g fill="#ffffff" fill-opacity="1"><g transform="translate(119.573338, 57.286884)"><g><path d="M 3.640625 -25 C 3.640625 -26.757812 4.269531 -28.257812 5.53125 -29.5 C 6.789062 -30.738281 8.304688 -31.359375 10.078125 -31.359375 L 21.125 -31.359375 C 23.207031 -31.359375 25.101562 -30.847656 26.8125 -29.828125 C 28.53125 -28.816406 29.898438 -27.453125 30.921875 -25.734375 C 31.941406 -24.015625 32.453125 -22.117188 32.453125 -20.046875 L 32.453125 0 L 26.0625 0 L 26.0625 -19.953125 C 26.0625 -21.359375 25.582031 -22.554688 24.625 -23.546875 C 23.664062 -24.535156 22.5 -25.03125 21.125 -25.03125 L 10.015625 -25.03125 L 10.015625 0 L 3.640625 0 Z M 3.640625 -25 "/></g></g></g><g fill="#ffffff" fill-opacity="1"><g transform="translate(155.654726, 57.286884)"><g><path d="M 3.328125 -20.109375 C 3.328125 -22.179688 3.835938 -24.066406 4.859375 -25.765625 C 5.878906 -27.460938 7.242188 -28.816406 8.953125 -29.828125 C 10.671875 -30.847656 12.570312 -31.359375 14.65625 -31.359375 L 25.765625 -31.359375 C 27.515625 -31.359375 29.015625 -30.734375 30.265625 -29.484375 C 31.523438 -28.234375 32.15625 -26.726562 32.15625 -24.96875 L 32.15625 0.359375 C 32.15625 2.441406 31.644531 4.335938 30.625 6.046875 C 29.601562 7.765625 28.234375 9.132812 26.515625 10.15625 C 24.804688 11.175781 22.910156 11.6875 20.828125 11.6875 L 5.359375 11.6875 L 5.359375 5.296875 L 20.734375 5.296875 C 22.128906 5.296875 23.316406 4.816406 24.296875 3.859375 C 25.273438 2.898438 25.765625 1.742188 25.765625 0.390625 L 25.765625 -24.96875 L 14.65625 -24.96875 C 13.300781 -24.96875 12.140625 -24.488281 11.171875 -23.53125 C 10.203125 -22.570312 9.71875 -21.410156 9.71875 -20.046875 L 9.71875 -11.359375 C 9.71875 -10.003906 10.203125 -8.835938 11.171875 -7.859375 C 12.140625 -6.878906 13.300781 -6.390625 14.65625 -6.390625 L 22.125 -6.390625 L 22.125 0 L 14.65625 0 C 12.570312 0 10.671875 -0.507812 8.953125 -1.53125 C 7.242188 -2.550781 5.878906 -3.910156 4.859375 -5.609375 C 3.835938 -7.316406 3.328125 -9.210938 3.328125 -11.296875 Z M 3.328125 -20.109375 "/></g></g></g><g fill="#ffffff" fill-opacity="1"><g transform="translate(191.433417, 57.286884)"><g><path d="M 3.328125 -22.546875 C 3.328125 -24.179688 3.734375 -25.664062 4.546875 -27 C 5.367188 -28.332031 6.460938 -29.390625 7.828125 -30.171875 C 9.191406 -30.960938 10.703125 -31.359375 12.359375 -31.359375 L 30.765625 -31.359375 L 30.765625 -24.96875 L 12.359375 -24.96875 C 11.628906 -24.96875 11.003906 -24.726562 10.484375 -24.25 C 9.972656 -23.78125 9.71875 -23.210938 9.71875 -22.546875 L 9.71875 -21.796875 C 9.71875 -21.109375 9.972656 -20.519531 10.484375 -20.03125 C 11.003906 -19.550781 11.628906 -19.3125 12.359375 -19.3125 L 23.796875 -19.3125 C 25.453125 -19.3125 26.957031 -18.910156 28.3125 -18.109375 C 29.675781 -17.316406 30.757812 -16.253906 31.5625 -14.921875 C 32.375 -13.585938 32.78125 -12.101562 32.78125 -10.46875 L 32.78125 -8.84375 C 32.78125 -7.226562 32.375 -5.75 31.5625 -4.40625 C 30.757812 -3.0625 29.675781 -1.988281 28.3125 -1.1875 C 26.957031 -0.394531 25.453125 0 23.796875 0 L 4.75 0 L 4.75 -6.390625 L 23.796875 -6.390625 C 24.523438 -6.390625 25.144531 -6.628906 25.65625 -7.109375 C 26.164062 -7.597656 26.421875 -8.1875 26.421875 -8.875 L 26.421875 -10.4375 C 26.421875 -11.144531 26.164062 -11.738281 25.65625 -12.21875 C 25.144531 -12.707031 24.523438 -12.953125 23.796875 -12.953125 L 12.359375 -12.953125 C 10.703125 -12.953125 9.191406 -13.347656 7.828125 -14.140625 C 6.460938 -14.941406 5.367188 -16.015625 4.546875 -17.359375 C 3.734375 -18.703125 3.328125 -20.179688 3.328125 -21.796875 Z M 3.328125 -22.546875 "/></g></g></g><g fill="#ffffff" fill-opacity="1"><g transform="translate(234.304674, 57.861755)"><g><path d="M 2.457031 -44.828125 L 12.40625 -44.828125 L 12.40625 1.78125 L 2.457031 1.78125 Z M 6.019531 -41.261719 L 6.019531 -1.78125 L 8.84375 -1.78125 L 8.84375 -41.261719 Z M 6.019531 -41.261719 "/></g></g></g><g fill="#ffffff" fill-opacity="1"><g transform="translate(250.407025, 57.861755)"><g><path d="M 2.457031 -30.9375 C 2.457031 -33.523438 3.128906 -35.875 4.472656 -37.992188 C 5.792969 -40.070312 7.554688 -41.726562 9.75 -42.964844 C 11.960938 -44.207031 14.402344 -44.828125 17.074219 -44.828125 L 27.152344 -44.828125 C 29.824219 -44.828125 32.269531 -44.207031 34.488281 -42.964844 C 36.699219 -41.730469 38.460938 -40.070312 39.769531 -37.988281 C 41.105469 -35.871094 41.769531 -33.519531 41.769531 -30.9375 L 41.769531 -12.109375 C 41.769531 -9.757812 41.203125 -7.582031 40.070312 -5.582031 C 38.953125 -3.613281 37.433594 -1.984375 35.515625 -0.699219 C 33.597656 0.589844 31.425781 1.382812 29.003906 1.679688 L 28.789062 -0.0898438 L 30.046875 -1.351562 L 35.117188 3.71875 L 28.097656 10.789062 L 18.566406 1.261719 L 19.828125 0 L 19.828125 1.78125 L 17.074219 1.78125 C 14.402344 1.78125 11.960938 1.160156 9.75 -0.0820312 C 7.550781 -1.316406 5.792969 -2.980469 4.472656 -5.070312 C 3.128906 -7.199219 2.457031 -9.542969 2.457031 -12.109375 Z M 6.019531 -30.9375 L 6.019531 -12.109375 C 6.019531 -10.234375 6.507812 -8.523438 7.484375 -6.976562 C 8.484375 -5.394531 9.824219 -4.128906 11.5 -3.1875 C 13.164062 -2.25 15.023438 -1.78125 17.074219 -1.78125 L 20.566406 -1.78125 L 29.351562 7.003906 L 28.089844 8.265625 L 26.828125 7.007812 L 31.335938 2.46875 L 32.601562 3.722656 L 31.339844 4.984375 L 24.941406 -1.414062 L 28.570312 -1.859375 C 30.429688 -2.085938 32.082031 -2.6875 33.53125 -3.660156 C 34.984375 -4.632812 36.128906 -5.859375 36.96875 -7.34375 C 37.792969 -8.796875 38.207031 -10.382812 38.207031 -12.109375 L 38.207031 -30.9375 C 38.207031 -32.832031 37.722656 -34.550781 36.753906 -36.085938 C 35.765625 -37.65625 34.429688 -38.914062 32.746094 -39.855469 C 31.070312 -40.792969 29.203125 -41.261719 27.152344 -41.261719 L 17.074219 -41.261719 C 15.023438 -41.261719 13.164062 -40.792969 11.5 -39.855469 C 9.820312 -38.914062 8.484375 -37.65625 7.484375 -36.082031 C 6.507812 -34.546875 6.019531 -32.832031 6.019531 -30.9375 Z M 12.40625 -12.078125 C 12.40625 -11.039062 12.839844 -10.136719 13.699219 -9.371094 C 14.625 -8.550781 15.75 -8.140625 17.074219 -8.140625 L 27.152344 -8.140625 C 28.496094 -8.140625 29.621094 -8.546875 30.535156 -9.363281 C 31.390625 -10.128906 31.816406 -11.035156 31.816406 -12.078125 L 31.816406 -30.96875 C 31.816406 -32.011719 31.390625 -32.914062 30.535156 -33.679688 C 29.621094 -34.496094 28.496094 -34.90625 27.152344 -34.90625 L 17.074219 -34.90625 C 15.75 -34.90625 14.625 -34.496094 13.699219 -33.675781 C 12.839844 -32.910156 12.40625 -32.007812 12.40625 -30.96875 Z M 8.84375 -12.078125 L 8.84375 -30.96875 C 8.84375 -33.074219 9.671875 -34.867188 11.332031 -36.339844 C 12.933594 -37.761719 14.84375 -38.472656 17.074219 -38.472656 L 27.152344 -38.472656 C 29.402344 -38.472656 31.324219 -37.757812 32.914062 -36.335938 C 34.558594 -34.863281 35.382812 -33.074219 35.382812 -30.96875 L 35.382812 -12.078125 C 35.382812 -9.972656 34.558594 -8.183594 32.914062 -6.707031 C 31.324219 -5.285156 29.402344 -4.574219 27.152344 -4.574219 L 17.074219 -4.574219 C 14.84375 -4.574219 12.933594 -5.285156 11.332031 -6.703125 C 9.671875 -8.179688 8.84375 -9.96875 8.84375 -12.078125 Z M 8.84375 -12.078125 "/></g></g></g><g fill="#ffffff" fill-opacity="1"><g transform="translate(234.304674, 57.861755)"><g><path d="M 4.234375 -43.046875 L 10.625 -43.046875 L 10.625 0 L 4.234375 0 Z M 4.234375 -43.046875 "/></g></g></g><g fill="#ffffff" fill-opacity="1"><g transform="translate(250.407025, 57.861755)"><g><path d="M 4.234375 -30.9375 C 4.234375 -33.175781 4.8125 -35.207031 5.96875 -37.03125 C 7.132812 -38.863281 8.6875 -40.320312 10.625 -41.40625 C 12.5625 -42.5 14.710938 -43.046875 17.078125 -43.046875 L 27.15625 -43.046875 C 29.519531 -43.046875 31.675781 -42.5 33.625 -41.40625 C 35.570312 -40.320312 37.117188 -38.863281 38.265625 -37.03125 C 39.410156 -35.207031 39.984375 -33.175781 39.984375 -30.9375 L 39.984375 -12.109375 C 39.984375 -10.066406 39.492188 -8.179688 38.515625 -6.453125 C 37.546875 -4.734375 36.21875 -3.304688 34.53125 -2.171875 C 32.84375 -1.046875 30.929688 -0.351562 28.796875 -0.09375 L 32.609375 3.71875 L 28.09375 8.265625 L 19.828125 0 L 17.078125 0 C 14.710938 0 12.5625 -0.539062 10.625 -1.625 C 8.6875 -2.71875 7.132812 -4.179688 5.96875 -6.015625 C 4.8125 -7.859375 4.234375 -9.890625 4.234375 -12.109375 Z M 10.625 -12.078125 C 10.625 -10.503906 11.253906 -9.15625 12.515625 -8.03125 C 13.773438 -6.914062 15.296875 -6.359375 17.078125 -6.359375 L 27.15625 -6.359375 C 28.945312 -6.359375 30.46875 -6.914062 31.71875 -8.03125 C 32.976562 -9.15625 33.609375 -10.503906 33.609375 -12.078125 L 33.609375 -30.96875 C 33.609375 -32.539062 32.976562 -33.882812 31.71875 -35 C 30.46875 -36.125 28.945312 -36.6875 27.15625 -36.6875 L 17.078125 -36.6875 C 15.296875 -36.6875 13.773438 -36.125 12.515625 -35 C 11.253906 -33.882812 10.625 -32.539062 10.625 -30.96875 Z M 10.625 -12.078125 "/></g></g></g><g clip-path="url(#99013ce7aa)"><path fill="#facc15" d="M 112.867188 7.523438 L 115.851562 13.570312 L 122.527344 14.542969 L 117.699219 19.25 L 118.835938 25.898438 L 112.867188 22.761719 L 106.894531 25.898438 L 108.035156 19.25 L 103.203125 14.542969 L 109.878906 13.570312 Z M 112.867188 7.523438 " fill-opacity="1" fill-rule="nonzero"/></g></svg>